<svg width="30" height="30" viewBox="0 0 30 30" fill="none" xmlns="http://www.w3.org/2000/svg">
<path d="M29.7046 12.1871C29.8958 13.1913 30 14.2412 30 15.3368C30 23.9064 24.1471 30 15.3071 30C13.2968 30.0006 11.306 29.613 9.4486 28.8594C7.59118 28.1058 5.9035 27.0009 4.48198 25.6079C3.06046 24.2149 1.93297 22.5611 1.16394 20.741C0.394899 18.9208 -0.000612225 16.97 7.11324e-07 15C-0.000612225 13.03 0.394899 11.0792 1.16394 9.25904C1.93297 7.43888 3.06046 5.78506 4.48198 4.39206C5.9035 2.99906 7.59118 1.89419 9.4486 1.14058C11.306 0.386977 13.2968 -0.000599942 15.3071 6.97052e-07C19.4402 6.97052e-07 22.8938 1.49025 25.5435 3.91L21.2284 8.13846V8.12779C19.6221 6.6284 17.5836 5.8589 15.3071 5.8589C10.2566 5.8589 6.15145 10.0401 6.15145 14.9909C6.15145 19.9401 10.2566 24.1304 15.3071 24.1304C19.8896 24.1304 23.0089 21.5629 23.6495 18.0369H15.3071V12.1871H29.7061H29.7046Z" fill="black"/>
</svg>
