<svg width="695" height="851" viewBox="0 0 695 851" fill="none" xmlns="http://www.w3.org/2000/svg">
<path d="M224.5 27C218.667 29.3333 202.6 36.1 185 44.5L168 54L146 69L120 89.5L94.5 115L67.5 147L48.5 178.5L37.5 200L24 231.5L18 254L11.5 281C9.66667 291.333 6.2 312.4 7 314C7.8 315.6 6.66667 330.667 6 338L7 356L8 366L9 379L11.5 396.5L14 409L18 426.5L31 463L47 496L65.5 526.5L88.5 556L144.5 625L148 629.5L158.5 642L182.5 672L194 685.5L213 709L220 717.5L233 734L244 747.5L253.5 759L266.5 775.5L278 789L288.5 802.5L295 810.5L303.5 820.5L310.5 828L321 837.5L329.5 842L339.5 845.5L357 845L367.5 841.5L374 838L380 834L386 828.5L392 822L398 815L455.5 744.5L494 696.5L513 673L552 625.5L605 560L616.5 545.5L628.5 529.5L636 518.5L645 503.5L651.5 491.5L663 468.5L674 438L681.5 412.5L685.5 387.5L689.5 348.5V319L685.5 283L675.5 242.5L667 219L660 202.5L649 181.5L641.5 168L629 147.5L616 130C612.5 126.167 605.4 118.4 605 118C604.6 117.6 599.167 111.833 596.5 109L587 100L574.5 88.5L561 77.5L546.5 66.5L507 43L467 25L429 14.5L392 7L369 5H329L305.5 7L283 10L264 14.5L245 19.5L224.5 27Z" fill="#F2B239" stroke="black" stroke-width="10"/>
<path d="M135.5 342L134.5 346V455.5L141 446L146.5 455.5V470.5H163.5V455.5L170 446L175.193 455.5V470.5H192.5V455.5L199 446L204.5 455.5V470.5H222V455.5L228 446L233.5 455.5V470.5H250.5V455L257 446.5L262 454.788V345L261.5 343L260 340L257.5 337.5L255 336L253 335H251.172H148.5H143L140.5 336L138.5 337.5L137 339.5L135.5 342Z" fill="#DADADA"/>
<path d="M146.5 547.5V480.5H163.5V535L146.5 547.5Z" fill="#DADADA"/>
<path d="M175.5 527V480.5H192V515L175.5 527Z" fill="#DADADA"/>
<path d="M205 506V480.5H222V493.5L205 506Z" fill="#DADADA"/>
<path d="M233.5 485V480.5H240L233.5 485Z" fill="#DADADA"/>
<path d="M163.5 548.5V556H152.5L163.5 548.5Z" fill="#DADADA"/>
<path d="M175.5 556V540L192 528V556H175.5Z" fill="#DADADA"/>
<path d="M221.5 507L205 519.5L204.766 556.221H221.5V507Z" fill="#DADADA"/>
<path d="M233.5 498.5V556L250.233 556.221L250 486.5L233.5 498.5Z" fill="#DADADA"/>
<path d="M233.5 584V566.5H250.5V584H233.5Z" fill="#DADADA"/>
<path d="M222 566.067V584H204.5V566.067H222Z" fill="#DADADA"/>
<path d="M192.5 566V584H175V566H192.5Z" fill="#DADADA"/>
<path d="M146.5 566.377V584H164V566.377H163.676H146.5Z" fill="#DADADA"/>
<path d="M317 486.5V340V338.5H563.5V486H470C469.833 471.833 469.5 441.6 469.5 434C469.5 426.4 460.833 421.5 456.5 420H421.5C412.3 422.4 408.667 430.333 408 434L407.5 486.5H317Z" fill="#DADADA"/>
<path d="M412.5 434V486.5L465.5 486V434C463.1 426.8 458.5 425.333 456.5 425.5H421.5C415.1 425.5 412.833 431.167 412.5 434Z" fill="#DADADA"/>
<path d="M325.5 339L333.5 348M333.5 348L358 374M333.5 348L342 339L316.5 366.5M358 374L382 399.5M358 374L379 350M358 374L334.5 399.5M358 374L389.5 339L379 350M382 399.5L406 425.5M382 399.5L359 425.5M382 399.5L403.5 375.5M382 399.5L335.5 450M406 425.5L428.5 401.5M406 425.5L410 429M406 425.5L382 451M428.5 401.5L403.5 375.5M428.5 401.5L451.5 375.5M428.5 401.5L445.5 420M403.5 375.5L379 350M403.5 375.5L427 350M379 350L368 339M334.5 399.5L316.5 381M334.5 399.5L359 425.5M334.5 399.5L316.5 419M359 425.5L335.5 450M359 425.5L382 451M427 350L416.5 339M427 350L437.5 339M427 350L451.5 375.5M451.5 375.5L474 350M451.5 375.5L475.5 400.5M474 350L463 339M474 350L484.5 339M474 350L498 376M498 376L520.5 351M498 376L521.5 401.5M498 376L475.5 400.5M520.5 351L509 339M520.5 351L531.5 339M520.5 351L544.5 376M544.5 376L563.5 356M544.5 376L563.5 396.5M544.5 376L521.5 401.5M521.5 401.5L546.5 427M521.5 401.5L499 426M546.5 427L563.5 408.5M546.5 427L563.5 446M546.5 427L523.5 452M523.5 452L547.5 478.5M523.5 452L500 477.5M523.5 452L499 426M547.5 478.5L563.5 461.5M547.5 478.5L540.5 486M547.5 478.5L555.682 486M500 477.5L508.5 486M500 477.5L493.5 486M500 477.5L475.5 452M475.5 452L499 426M475.5 452L470 458M475.5 452L470 446M499 426L475.5 400.5M475.5 400.5L458.5 420M382 451L406.5 476.5L398.5 486M382 451L359.5 476M359.5 476L369 486M359.5 476L350.5 486M359.5 476L335.5 450M335.5 450L316.5 472M335.5 450L317 430" stroke="#373736" stroke-width="3"/>
<path d="M412.5 486.5H407.5L408 434L409 431L411 427.5L413 425L415 423L418.5 421L421 420.5H457.5C463.5 420.9 468 428.333 469.5 432V434L470 486H465.5V434C465.1 428 459.667 425.833 457 425.5H421C415 425.9 412.833 431.333 412.5 434V486.5Z" fill="#373736"/>
<path fill-rule="evenodd" clip-rule="evenodd" d="M97.5 588.5H126L124.5 344.5C125.833 339.167 131 327.9 141 325.5C154.2 325.1 222.5 324.667 255 324.5C260 325.5 270.3 330.5 271.5 342.5C272.3 354.5 271.833 511.5 271.5 588.5H595.5V314.5C514 273.167 350.9 190.5 350.5 190.5H347.5L97.5 317V588.5ZM307.5 495V329.5H572.5L573.5 495.5L307.5 495Z" fill="#F6F6F6"/>
<path fill-rule="evenodd" clip-rule="evenodd" d="M31 310.5L27 303L27.5 296.5L32 290.5L346 125H353L669 293C671 296.667 673.5 305.1 667.5 309.5C659.9 312.3 631.333 319.667 618 323H612.5L603.5 318.5V588.5H639.5C643.167 589.5 650.6 592.9 651 598.5C651.4 604.1 651.5 620.167 651.5 627.5L46 628V600.5C46.3333 596.5 49 588.5 57 588.5H89V321.5C88 321.833 85.9 322.6 85.5 323C85.1 323.4 81.6667 323.167 80 323L31 310.5ZM35.5 299V302.5L80.5 314.5H83.5L345 182.5H353L614 314.5H618C618.4 314.5 647.833 306.5 662.5 302.5V298.5L350 133.5H347.5L35.5 299ZM97.5 588.5V317L347.5 190.5H350.5L595.5 314.5V588.5H271.5V342.5C269.5 330.5 259.333 325.833 254.5 325H250C222.667 325.167 162.6 325.5 141 325.5C129.8 329.5 125.333 339.833 124.5 344.5L126 588.5H97.5ZM55 619V601.5C55.4 599.1 58.1667 597.5 59.5 597H638C639.2 596.6 641.833 599.833 643 601.5V619H55ZM134.5 346V584H262.5V345C261.3 337 253.667 334.667 250 334.5H145.5C137.9 334.5 135 342.167 134.5 346Z" fill="#373736"/>
<path fill-rule="evenodd" clip-rule="evenodd" d="M307.5 330V495.5H573.5L572.5 329.5L307.5 330ZM316.5 486V339.5V338.5H563.5V486H316.5Z" fill="#373736"/>
<path d="M35.5 299V302.5L80.5 314.5H83.5L345 182.5H353L614 314.5H618L662.5 302.5V298.5L350 133.5H347.5L35.5 299Z" fill="#A53934"/>
<path d="M55.5 600L55 601.5V619H643V601.5L642 600L640.5 598.5L639.5 597.5L638.287 597H63H59.5L58.5 597.5L57 598.5L55.5 600Z" fill="#706F6F"/>
</svg>
