<svg width="38" height="38" viewBox="0 0 38 38" fill="none" xmlns="http://www.w3.org/2000/svg">
<path d="M32.125 0.25C29.0269 0.25 26.5 2.77686 26.5 5.875C26.5 7.22754 26.981 8.47021 27.7793 9.43945C27.7598 9.50049 27.75 9.56152 27.75 9.625C27.75 9.96924 28.0308 10.25 28.375 10.25C28.4385 10.25 28.4995 10.2402 28.5605 10.2207C29.5322 11.019 30.7749 11.5 32.125 11.5C35.2231 11.5 37.75 8.97314 37.75 5.875C37.75 2.77686 35.2231 0.25 32.125 0.25ZM32.125 1.5C34.5493 1.5 36.5 3.45068 36.5 5.875C36.5 8.29932 34.5493 10.25 32.125 10.25C29.7007 10.25 27.75 8.29932 27.75 5.875C27.75 3.45068 29.7007 1.5 32.125 1.5ZM32.125 2.75C31.7808 2.75 31.5 3.03076 31.5 3.375C31.5 3.71924 31.7808 4 32.125 4C32.4692 4 32.75 3.71924 32.75 3.375C32.75 3.03076 32.4692 2.75 32.125 2.75ZM29.625 5.25C29.2808 5.25 29 5.53076 29 5.875C29 6.21924 29.2808 6.5 29.625 6.5C29.9692 6.5 30.25 6.21924 30.25 5.875C30.25 5.53076 29.9692 5.25 29.625 5.25ZM34.625 5.25C34.2808 5.25 34 5.53076 34 5.875C34 6.21924 34.2808 6.5 34.625 6.5C34.9692 6.5 35.25 6.21924 35.25 5.875C35.25 5.53076 34.9692 5.25 34.625 5.25ZM32.125 7.75C31.7808 7.75 31.5 8.03076 31.5 8.375C31.5 8.71924 31.7808 9 32.125 9C32.4692 9 32.75 8.71924 32.75 8.375C32.75 8.03076 32.4692 7.75 32.125 7.75ZM26.5 10.875C26.1558 10.875 25.875 11.1558 25.875 11.5C25.875 11.8442 26.1558 12.125 26.5 12.125C26.8442 12.125 27.125 11.8442 27.125 11.5C27.125 11.1558 26.8442 10.875 26.5 10.875ZM24.625 12.75C24.2808 12.75 24 13.0308 24 13.375C24 13.7192 24.2808 14 24.625 14C24.9692 14 25.25 13.7192 25.25 13.375C25.25 13.0308 24.9692 12.75 24.625 12.75ZM5.875 13.375C2.77686 13.375 0.25 15.9019 0.25 19C0.25 22.0981 2.77686 24.625 5.875 24.625C8.76318 24.625 11.1509 22.4302 11.4634 19.625C11.4756 19.625 11.4878 19.625 11.5 19.625C11.8442 19.625 12.125 19.3442 12.125 19C12.125 18.6558 11.8442 18.375 11.5 18.375C11.4878 18.375 11.4756 18.3774 11.4634 18.3774C11.1509 15.5698 8.76318 13.375 5.875 13.375ZM5.875 14.625C8.29932 14.625 10.25 16.5757 10.25 19C10.25 21.4243 8.29932 23.375 5.875 23.375C3.45068 23.375 1.5 21.4243 1.5 19C1.5 16.5757 3.45068 14.625 5.875 14.625ZM22.75 14.625C22.4058 14.625 22.125 14.9058 22.125 15.25C22.125 15.5942 22.4058 15.875 22.75 15.875C23.0942 15.875 23.375 15.5942 23.375 15.25C23.375 14.9058 23.0942 14.625 22.75 14.625ZM5.875 15.875C5.53076 15.875 5.25 16.1558 5.25 16.5C5.25 16.8442 5.53076 17.125 5.875 17.125C6.21924 17.125 6.5 16.8442 6.5 16.5C6.5 16.1558 6.21924 15.875 5.875 15.875ZM20.875 16.5C20.5308 16.5 20.25 16.7808 20.25 17.125C20.25 17.4692 20.5308 17.75 20.875 17.75C21.2192 17.75 21.5 17.4692 21.5 17.125C21.5 16.7808 21.2192 16.5 20.875 16.5ZM3.375 18.375C3.03076 18.375 2.75 18.6558 2.75 19C2.75 19.3442 3.03076 19.625 3.375 19.625C3.71924 19.625 4 19.3442 4 19C4 18.6558 3.71924 18.375 3.375 18.375ZM8.375 18.375C8.03076 18.375 7.75 18.6558 7.75 19C7.75 19.3442 8.03076 19.625 8.375 19.625C8.71924 19.625 9 19.3442 9 19C9 18.6558 8.71924 18.375 8.375 18.375ZM14 18.375C13.6558 18.375 13.375 18.6558 13.375 19C13.375 19.3442 13.6558 19.625 14 19.625C14.3442 19.625 14.625 19.3442 14.625 19C14.625 18.6558 14.3442 18.375 14 18.375ZM16.5 18.375C16.1558 18.375 15.875 18.6558 15.875 19C15.875 19.3442 16.1558 19.625 16.5 19.625C16.8442 19.625 17.125 19.3442 17.125 19C17.125 18.6558 16.8442 18.375 16.5 18.375ZM19 18.375C18.6558 18.375 18.375 18.6558 18.375 19C18.375 19.3442 18.6558 19.625 19 19.625C19.3442 19.625 19.625 19.3442 19.625 19C19.625 18.6558 19.3442 18.375 19 18.375ZM20.875 20.25C20.5308 20.25 20.25 20.5308 20.25 20.875C20.25 21.2192 20.5308 21.5 20.875 21.5C21.2192 21.5 21.5 21.2192 21.5 20.875C21.5 20.5308 21.2192 20.25 20.875 20.25ZM5.875 20.875C5.53076 20.875 5.25 21.1558 5.25 21.5C5.25 21.8442 5.53076 22.125 5.875 22.125C6.21924 22.125 6.5 21.8442 6.5 21.5C6.5 21.1558 6.21924 20.875 5.875 20.875ZM22.75 22.125C22.4058 22.125 22.125 22.4058 22.125 22.75C22.125 23.0942 22.4058 23.375 22.75 23.375C23.0942 23.375 23.375 23.0942 23.375 22.75C23.375 22.4058 23.0942 22.125 22.75 22.125ZM24.625 24C24.2808 24 24 24.2808 24 24.625C24 24.9692 24.2808 25.25 24.625 25.25C24.9692 25.25 25.25 24.9692 25.25 24.625C25.25 24.2808 24.9692 24 24.625 24ZM26.5 25.875C26.1558 25.875 25.875 26.1558 25.875 26.5C25.875 26.8442 26.1558 27.125 26.5 27.125C26.8442 27.125 27.125 26.8442 27.125 26.5C27.125 26.1558 26.8442 25.875 26.5 25.875ZM32.125 26.5C30.7725 26.5 29.5298 26.981 28.5605 27.7793C28.4995 27.7598 28.4385 27.75 28.375 27.75C28.0308 27.75 27.75 28.0308 27.75 28.375C27.75 28.4385 27.7598 28.4995 27.7793 28.5605C26.981 29.5322 26.5 30.7749 26.5 32.125C26.5 35.2231 29.0269 37.75 32.125 37.75C35.2231 37.75 37.75 35.2231 37.75 32.125C37.75 29.0269 35.2231 26.5 32.125 26.5ZM32.125 27.75C34.5493 27.75 36.5 29.7007 36.5 32.125C36.5 34.5493 34.5493 36.5 32.125 36.5C29.7007 36.5 27.75 34.5493 27.75 32.125C27.75 29.7007 29.7007 27.75 32.125 27.75ZM32.125 29C31.7808 29 31.5 29.2808 31.5 29.625C31.5 29.9692 31.7808 30.25 32.125 30.25C32.4692 30.25 32.75 29.9692 32.75 29.625C32.75 29.2808 32.4692 29 32.125 29ZM29.625 31.5C29.2808 31.5 29 31.7808 29 32.125C29 32.4692 29.2808 32.75 29.625 32.75C29.9692 32.75 30.25 32.4692 30.25 32.125C30.25 31.7808 29.9692 31.5 29.625 31.5ZM34.625 31.5C34.2808 31.5 34 31.7808 34 32.125C34 32.4692 34.2808 32.75 34.625 32.75C34.9692 32.75 35.25 32.4692 35.25 32.125C35.25 31.7808 34.9692 31.5 34.625 31.5ZM32.125 34C31.7808 34 31.5 34.2808 31.5 34.625C31.5 34.9692 31.7808 35.25 32.125 35.25C32.4692 35.25 32.75 34.9692 32.75 34.625C32.75 34.2808 32.4692 34 32.125 34Z" fill="black"/>
</svg>
