<svg width="50" height="50" viewBox="0 0 50 50" fill="none" xmlns="http://www.w3.org/2000/svg">
<path opacity="0.35" d="M13.8005 46.511C12.936 46.511 12.1215 46.175 11.5085 45.565L6.54697 40.626C5.27897 39.3645 5.27247 37.3045 6.53197 36.034L16.4885 26L6.51847 15.9525C5.25797 14.6815 5.26497 12.6215 6.53297 11.3595L11.4935 6.42149C12.044 5.87299 12.7695 5.54749 13.5905 5.48249L13.694 5.47449H13.798C14.6665 5.47749 15.4815 5.81849 16.093 6.43449L26 16.4195L35.8715 6.47099C36.484 5.85449 37.299 5.51299 38.167 5.50999C39.043 5.50999 39.8575 5.84599 40.4705 6.45599L45.432 11.395C46.7 12.6565 46.7065 14.7165 45.447 15.987L35.4465 26.059L45.3965 36.087C46.657 37.358 46.715 39.359 45.447 40.621L40.4865 45.559C39.8755 46.168 39.061 46.505 38.1945 46.506C37.314 46.503 36.499 46.162 35.8875 45.546L26 35.5805L16.1075 45.5505C15.495 46.167 14.68 46.5085 13.8115 46.5115H13.807H13.8005V46.511Z" fill="black"/>
<path d="M12.8005 45.511C11.936 45.511 11.1215 45.175 10.5085 44.565L5.54697 39.626C4.27897 38.3645 4.27247 36.3045 5.53197 35.034L15.4885 25L5.51847 14.9525C4.25797 13.6815 4.26497 11.6215 5.53297 10.3595L10.4935 5.42149C11.044 4.87299 11.7695 4.54749 12.5905 4.48249L12.694 4.47449H12.798C13.6665 4.47749 14.4815 4.81849 15.093 5.43449L25 15.4195L34.8715 5.47099C35.484 4.85449 36.299 4.51299 37.167 4.50999C38.043 4.50999 38.8575 4.84599 39.4705 5.45599L44.432 10.395C45.7 11.6565 45.7065 13.7165 44.447 14.987L34.5115 25L44.4615 35.028C45.722 36.299 45.715 38.359 44.447 39.621L39.4865 44.559C38.8755 45.168 38.061 45.505 37.1945 45.506C36.314 45.503 35.499 45.162 34.8875 44.546L25 34.5805L15.1075 44.5505C14.495 45.167 13.68 45.5085 12.8115 45.5115H12.807H12.8005V45.511Z" fill="#F2F2F2"/>
<path d="M42.1394 12.6985L37.1784 7.76001L24.9999 20.0335L12.7864 7.72501L7.82544 12.6635L20.0669 25L7.83944 37.3225L12.8004 42.261L24.9999 29.9665L37.1939 42.2555L42.1549 37.317L29.9329 25L42.1394 12.6985Z" fill="#FF7575"/>
</svg>
