<svg width="50" height="50" viewBox="0 0 50 50" fill="none" xmlns="http://www.w3.org/2000/svg">
<path d="M25 48.125C12.2487 48.125 1.875 37.7513 1.875 25C1.875 12.2487 12.2487 1.875 25 1.875C37.7513 1.875 48.125 12.2487 48.125 25C48.125 37.7513 37.7513 48.125 25 48.125Z" fill="#BAE0BD"/>
<path d="M25 2.5C37.4063 2.5 47.5 12.5937 47.5 25C47.5 37.4063 37.4063 47.5 25 47.5C12.5937 47.5 2.5 37.4063 2.5 25C2.5 12.5937 12.5937 2.5 25 2.5ZM25 1.25C11.8837 1.25 1.25 11.8837 1.25 25C1.25 38.1163 11.8837 48.75 25 48.75C38.1163 48.75 48.75 38.1163 48.75 25C48.75 11.8837 38.1163 1.25 25 1.25Z" fill="#5E9C76"/>
<path d="M12.5 22.5H37.5V27.5H12.5V22.5Z" fill="white"/>
<path d="M27.5 12.5V37.5H22.5V12.5H27.5Z" fill="white"/>
</svg>
